<svg width="245" height="112" viewBox="0 0 245 112" fill="none" xmlns="http://www.w3.org/2000/svg">
<mask id="mask0_9_6" style="mask-type:luminance" maskUnits="userSpaceOnUse" x="0" y="0" width="245" height="112">
<path d="M245 0H0V112H245V0Z" fill="white"/>
</mask>
<g mask="url(#mask0_9_6)">
<path d="M238.561 45.7427C238.561 51.7626 238.552 57.7149 238.565 63.6672C238.576 68.4915 236.414 72.315 231.834 74.9768C229.525 76.3184 226.912 76.9258 224.155 76.9512C220.941 76.9811 217.725 76.9914 214.513 76.9235C207.542 76.776 201.248 71.7416 200.784 65.019C200.753 64.5693 200.733 64.1181 200.733 63.6675C200.731 53.409 200.749 43.1502 200.724 32.8915C200.711 28.3851 202.653 24.7467 206.765 22.0818C208.983 20.6445 211.495 19.7603 214.281 19.7238C217.852 19.6771 221.426 19.6531 224.993 19.7381C230.598 19.8714 235.812 23.3469 237.664 28.0462C238.276 29.5958 238.557 31.1894 238.559 32.8234C238.566 37.1072 238.561 41.391 238.561 45.7427ZM213.174 62.3206C213.174 62.907 213.166 63.4934 213.177 64.0795C213.199 65.3125 213.914 65.9338 215.324 65.9355C218.181 65.9395 221.039 65.9387 223.897 65.9358C225.454 65.9342 226.22 65.2864 226.22 63.9206C226.228 53.525 226.228 43.1294 226.22 32.7338C226.22 31.243 225.407 30.5525 223.716 30.5509C221.061 30.5482 218.408 30.5491 215.754 30.5506C213.838 30.5515 213.174 31.1362 213.174 32.8251C213.174 42.612 213.174 52.3987 213.174 62.3206Z" fill="#FDFDFD"/>
<path d="M12.8635 76.8374C10.7499 76.8374 8.71281 76.8374 6.59247 76.8374C6.56957 76.5313 6.53326 76.2726 6.53322 76.0137C6.53062 57.4096 6.5344 38.8056 6.51578 20.2014C6.51516 19.5785 6.70027 19.4019 7.40861 19.408C11.0059 19.439 14.6043 19.3859 18.2011 19.4323C22.023 19.4819 25.705 20.1027 28.9886 21.9528C33.5648 24.5313 36.3879 28.1708 37.3848 32.9097C38.3187 37.3502 37.2852 41.408 34.4094 45.11C34.0621 45.5572 34.2579 45.7595 34.6111 46.048C37.9073 48.7403 39.9337 52.0688 40.6952 55.9561C41.6756 60.9611 40.3927 65.5422 36.987 69.6225C34.4851 72.62 31.2066 74.7457 27.2032 75.9337C25.2933 76.5004 23.3253 76.8616 21.2834 76.8435C18.5026 76.819 15.7212 76.8374 12.8635 76.8374ZM19.0374 54.7441C19.0374 58.259 19.047 61.7739 19.0265 65.2886C19.0236 65.7812 19.1695 65.998 19.7539 65.951C20.4129 65.8979 21.0794 65.9152 21.7368 65.8531C26.0903 65.4417 29.3085 61.5777 28.4476 57.7937C27.61 54.1116 24.0953 51.7868 19.4962 52.1233C19.3303 52.1355 19.0715 52.4153 19.059 52.5822C19.0084 53.2552 19.0378 53.9329 19.0374 54.7441ZM23.5067 39.6556C25.601 37.8318 25.9912 35.2456 24.5174 33.0452C23.4078 31.3888 20.6773 30.1788 19.1033 30.6315C19.1033 34.1227 19.1033 37.6025 19.1033 41.1102C20.7994 41.1411 22.2077 40.6612 23.5067 39.6556Z" fill="#FEFEFE"/>
<path d="M77.9033 22.6362C78.4966 25.3922 79.0773 28.091 79.6586 30.7899C80.5306 34.8381 81.4001 38.8867 82.2759 42.9342C83.1327 46.8931 83.9989 50.8504 84.8562 54.8093C85.972 59.9624 87.0805 65.1168 88.1977 70.2698C88.6149 72.1936 89.0501 74.1142 89.4709 76.0373C89.5226 76.2734 89.5375 76.5157 89.5802 76.8354C89.2198 76.8354 88.9463 76.8354 88.6726 76.8354C85.1264 76.8354 81.5797 76.8122 78.0341 76.8531C77.2364 76.8622 76.959 76.6533 76.8166 75.9603C76.1019 72.4824 75.3192 69.0155 74.5448 65.4734C74.2994 65.4614 74.0548 65.4394 73.8102 65.4392C69.9067 65.437 66.0032 65.448 62.0999 65.4266C61.5099 65.4232 61.2781 65.5706 61.1351 66.0984C60.2101 69.5122 59.227 72.9134 58.2839 76.3235C58.1815 76.6939 58.0251 76.8445 57.5756 76.843C53.6211 76.8293 49.6666 76.8347 45.7121 76.8326C45.613 76.8326 45.5138 76.8115 45.3145 76.789C45.6471 75.5933 45.9691 74.423 46.2985 73.2544C48.0833 66.9214 49.8659 60.5878 51.6574 54.2563C53.2884 48.4918 54.9314 42.7299 56.5662 36.9662C58.1699 31.3123 59.7802 25.6598 61.3545 19.9997C61.4923 19.5045 61.7371 19.4024 62.2413 19.4131C64.4317 19.46 66.6231 19.5107 68.814 19.5091C71.3366 19.5072 73.8595 19.4667 76.3814 19.4088C77.007 19.3944 77.2846 19.5318 77.3594 20.1251C77.4634 20.9502 77.7069 21.7618 77.9033 22.6362ZM68.4403 40.1094C67.1057 44.855 65.7711 49.6008 64.4221 54.3974C67.0345 54.3974 69.5368 54.3974 72.1211 54.3974C71.0257 49.3158 69.9437 44.2965 68.8617 39.2771C68.8129 39.2726 68.7641 39.2683 68.7154 39.264C68.6307 39.5096 68.5459 39.7554 68.4403 40.1094Z" fill="#FDFDFD"/>
<path d="M93.8954 75.5045C93.8954 57.0579 93.8954 38.6778 93.8954 20.2976C93.8954 19.4197 93.896 19.4191 94.894 19.4189C98.4152 19.4186 101.937 19.4189 105.458 19.4189C105.71 19.4189 105.962 19.4189 106.314 19.4189C106.314 34.8794 106.314 50.2907 106.314 65.7808C113.672 65.7808 120.931 65.7808 128.244 65.7808C128.244 69.4773 128.244 73.0954 128.244 76.8352C127.932 76.8352 127.613 76.8352 127.294 76.8352C116.628 76.8352 105.962 76.8352 95.2958 76.8352C93.8954 76.8352 93.8954 76.8352 93.8954 75.5045Z" fill="#FDFDFD"/>
<path d="M145.001 19.6962C145.012 38.5446 145.011 57.332 145.026 76.1194C145.027 76.6741 144.858 76.8509 144.212 76.8462C140.588 76.8198 136.965 76.8334 133.341 76.8334C133.14 76.8334 132.939 76.8334 132.649 76.8334C132.629 76.535 132.596 76.276 132.596 76.017C132.593 57.4099 132.597 38.803 132.579 20.1962C132.578 19.5824 132.745 19.3947 133.466 19.4016C137.038 19.436 140.611 19.4126 144.184 19.4267C144.453 19.4278 144.722 19.5626 145.001 19.6962Z" fill="#FDFDFD"/>
<path d="M156.34 21.0631C160.704 21.0631 164.991 21.0763 169.278 21.0488C169.914 21.0447 170.236 21.2378 170.496 21.7267C172.71 25.8815 174.94 30.0293 177.176 34.1749C179.312 38.1376 181.461 42.0954 183.607 46.0544C183.668 46.169 183.754 46.2741 183.937 46.5439C188.274 38.5683 192.545 30.7157 196.867 22.7704C196.559 22.7445 196.35 22.7117 196.14 22.7115C191.929 22.7085 187.719 22.7171 183.509 22.6986C182.993 22.6963 182.746 22.8571 182.532 23.2591C181.343 25.5005 180.12 27.7283 178.906 29.9595C178.832 30.0954 178.73 30.2192 178.569 30.4538C178.185 29.8527 177.82 29.3429 177.536 28.8C177.451 28.6362 177.534 28.3571 177.634 28.1706C178.881 25.8528 180.132 23.5362 181.43 21.2407C181.54 21.045 181.997 20.9043 182.293 20.9031C187.218 20.8826 192.144 20.8887 197.067 20.8887C198.056 20.8888 199.043 20.8887 200.207 20.8887C194.791 30.8019 189.443 40.5904 184.008 50.5399C183.48 49.6135 183.04 48.86 182.619 48.0991C178.857 41.3059 175.096 34.5117 171.336 27.7171C170.519 26.2405 169.705 24.7626 168.898 23.2819C168.713 22.9431 168.534 22.6952 168.007 22.6978C163.72 22.7184 159.433 22.7095 155.146 22.7117C155.026 22.7117 154.906 22.7373 154.661 22.7651C155.231 23.8296 155.764 24.8384 156.31 25.8415C158.576 29.9992 160.844 34.1555 163.113 38.3119C165.537 42.7523 167.962 47.1923 170.388 51.6323C172.48 55.4635 181.942 46.6975 184.008 50.5399C184.143 50.7915 176.765 63.8003 176.623 64.0547C174.293 68.2338 171.937 72.4015 169.563 76.5611C169.453 76.7549 169.123 76.973 168.894 76.9739C163.05 76.996 157.207 76.9911 151.363 76.9875C151.27 76.9875 151.177 76.9482 150.956 76.8984C155.856 67.9568 160.73 59.0624 165.676 50.0365C166.312 51.2122 166.881 52.1024 166.092 53.3795C164.127 56.5581 162.368 59.8365 160.537 63.0795C158.443 66.7861 156.362 70.4978 154.277 74.208C154.156 74.4231 154.051 74.6451 153.884 74.969C154.232 74.9946 154.469 75.0269 154.705 75.0271C158.992 75.0301 163.279 75.0216 167.566 75.0394C168.072 75.0415 168.328 74.9067 168.554 74.4965C170.468 71.0125 172.406 67.5392 174.355 64.0707C174.62 63.5995 174.592 63.192 174.338 62.7306C169.802 54.4674 165.277 46.1991 160.747 37.9335C157.782 32.525 154.81 27.1194 151.844 21.7115C151.757 21.5527 151.695 21.3829 151.552 21.0631C153.189 21.0631 154.726 21.0631 156.34 21.0631Z" fill="#F0D100"/>
<path d="M213.174 62.2509C213.174 52.3965 213.174 42.6096 213.174 32.8229C213.174 31.1339 213.838 30.5493 215.754 30.5483C218.408 30.5469 221.061 30.5459 223.714 30.5485C225.407 30.5503 226.218 31.2408 226.22 32.7315C226.228 43.1271 226.226 53.5227 226.22 63.9184C226.22 65.2842 225.454 65.932 223.897 65.9336C221.039 65.9365 218.181 65.9371 215.324 65.9333C213.914 65.9314 213.197 65.3103 213.175 64.0773C213.166 63.4911 213.174 62.9047 213.174 62.2509Z" fill="#020202"/>
<path d="M19.036 54.6759C19.0361 53.9323 19.0069 53.2546 19.0574 52.5816C19.0699 52.4147 19.3289 52.1349 19.4947 52.1227C24.0938 51.7862 27.6086 54.1111 28.4461 57.7931C29.3071 61.5771 26.0889 65.4411 21.7351 65.8525C21.078 65.9146 20.4112 65.8973 19.7524 65.9504C19.1679 65.9975 19.0222 65.7807 19.0251 65.288C19.0456 61.7733 19.036 58.2584 19.036 54.6759Z" fill="#050505"/>
<path d="M23.4668 39.6895C22.2068 40.6615 20.7987 41.1413 19.1025 41.1104C19.1025 37.6027 19.1025 34.1229 19.1025 30.6317C20.6763 30.1791 23.4071 31.389 24.5167 33.0455C25.9905 35.2458 25.6001 37.832 23.4668 39.6895Z" fill="#080808"/>
<path d="M68.4506 40.0539C68.5459 39.7541 68.6305 39.5085 68.7152 39.2629C68.7641 39.2672 68.8127 39.2715 68.8615 39.2758C69.9435 44.2952 71.0255 49.3146 72.1209 54.3963C69.5366 54.3963 67.0344 54.3963 64.4219 54.3963C65.7709 49.5995 67.1055 44.8539 68.4506 40.0539Z" fill="#060606"/>
</g>
<rect x="6" y="81" width="232" height="24" fill="white"/>
<path d="M16.804 99V89.478H11.728V86.4H25.57V89.478H20.368V99H16.804ZM30.3029 99V86.4H41.9849V89.334H33.7229V96.066H42.2549V99H30.3029ZM32.1749 93.996V91.224H41.2649V93.996H32.1749ZM54.9228 99.18C53.7948 99.18 52.7448 99.024 51.7728 98.712C50.8008 98.4 49.9488 97.956 49.2168 97.38C48.4848 96.804 47.9148 96.114 47.5068 95.31C47.0988 94.506 46.8948 93.612 46.8948 92.628C46.8948 91.656 47.0988 90.768 47.5068 89.964C47.9268 89.16 48.4968 88.47 49.2168 87.894C49.9368 87.318 50.7768 86.874 51.7368 86.562C52.7088 86.238 53.7528 86.076 54.8688 86.076C55.6728 86.076 56.4408 86.16 57.1728 86.328C57.9048 86.496 58.5888 86.724 59.2248 87.012C59.8608 87.288 60.4068 87.606 60.8628 87.966L58.8648 90.738C58.5768 90.498 58.2348 90.27 57.8388 90.054C57.4428 89.826 56.9868 89.646 56.4708 89.514C55.9548 89.37 55.3548 89.298 54.6708 89.298C54.1668 89.298 53.6748 89.37 53.1948 89.514C52.7148 89.646 52.2708 89.856 51.8628 90.144C51.4668 90.42 51.1488 90.768 50.9088 91.188C50.6808 91.608 50.5668 92.1 50.5668 92.664C50.5668 93.228 50.6928 93.72 50.9448 94.14C51.1968 94.56 51.5388 94.908 51.9708 95.184C52.4148 95.46 52.9068 95.67 53.4468 95.814C53.9868 95.946 54.5448 96.012 55.1208 96.012C55.8048 96.012 56.4048 95.922 56.9208 95.742C57.4368 95.55 57.8868 95.328 58.2708 95.076C58.6548 94.824 58.9968 94.596 59.2968 94.392L60.9528 97.11C60.5928 97.398 60.1008 97.704 59.4768 98.028C58.8648 98.352 58.1688 98.628 57.3888 98.856C56.6088 99.072 55.7868 99.18 54.9228 99.18ZM75.9275 99V86.4H79.4915V99H75.9275ZM65.7755 99V86.4H69.3395V99H65.7755ZM67.1255 94.356L67.1615 91.224H77.8895V94.356H67.1255ZM85.4982 99V86.4H88.8642L97.5042 94.788L96.9462 94.608C96.8742 94.104 96.8142 93.642 96.7662 93.222C96.7302 92.802 96.7002 92.412 96.6762 92.052C96.6522 91.692 96.6342 91.35 96.6222 91.026C96.6102 90.702 96.5982 90.378 96.5862 90.054C96.5862 89.73 96.5862 89.394 96.5862 89.046V86.4H100.024V99H96.6222L87.5142 90L88.5762 90.306C88.6122 90.462 88.6482 90.642 88.6842 90.846C88.7202 91.038 88.7502 91.266 88.7742 91.53C88.8102 91.782 88.8402 92.082 88.8642 92.43C88.8882 92.778 88.9062 93.186 88.9182 93.654C88.9302 94.122 88.9362 94.656 88.9362 95.256V99H85.4982ZM113.337 99.18C112.137 99.18 111.039 99.018 110.043 98.694C109.047 98.358 108.189 97.896 107.469 97.308C106.749 96.708 106.191 96.012 105.795 95.22C105.399 94.416 105.201 93.552 105.201 92.628C105.201 91.692 105.399 90.828 105.795 90.036C106.203 89.244 106.767 88.554 107.487 87.966C108.207 87.366 109.059 86.904 110.043 86.58C111.039 86.244 112.137 86.076 113.337 86.076C114.525 86.076 115.611 86.244 116.595 86.58C117.591 86.904 118.449 87.366 119.169 87.966C119.901 88.554 120.465 89.244 120.861 90.036C121.257 90.828 121.455 91.686 121.455 92.61C121.455 93.546 121.257 94.416 120.861 95.22C120.465 96.012 119.901 96.708 119.169 97.308C118.449 97.896 117.591 98.358 116.595 98.694C115.611 99.018 114.525 99.18 113.337 99.18ZM113.337 95.868C113.985 95.868 114.585 95.79 115.137 95.634C115.689 95.466 116.163 95.238 116.559 94.95C116.967 94.65 117.279 94.302 117.495 93.906C117.711 93.51 117.819 93.084 117.819 92.628C117.819 92.172 117.711 91.746 117.495 91.35C117.279 90.954 116.967 90.612 116.559 90.324C116.163 90.024 115.689 89.796 115.137 89.64C114.585 89.472 113.985 89.388 113.337 89.388C112.677 89.388 112.071 89.472 111.519 89.64C110.967 89.796 110.487 90.024 110.079 90.324C109.683 90.612 109.377 90.954 109.161 91.35C108.945 91.746 108.837 92.172 108.837 92.628C108.837 93.084 108.945 93.51 109.161 93.906C109.377 94.302 109.683 94.65 110.079 94.95C110.487 95.238 110.967 95.466 111.519 95.634C112.071 95.79 112.677 95.868 113.337 95.868ZM126.631 99V86.4H130.195V95.922H138.205V99H126.631ZM150.005 99.18C148.805 99.18 147.707 99.018 146.711 98.694C145.715 98.358 144.857 97.896 144.137 97.308C143.417 96.708 142.859 96.012 142.463 95.22C142.067 94.416 141.869 93.552 141.869 92.628C141.869 91.692 142.067 90.828 142.463 90.036C142.871 89.244 143.435 88.554 144.155 87.966C144.875 87.366 145.727 86.904 146.711 86.58C147.707 86.244 148.805 86.076 150.005 86.076C151.193 86.076 152.279 86.244 153.263 86.58C154.259 86.904 155.117 87.366 155.837 87.966C156.569 88.554 157.133 89.244 157.529 90.036C157.925 90.828 158.123 91.686 158.123 92.61C158.123 93.546 157.925 94.416 157.529 95.22C157.133 96.012 156.569 96.708 155.837 97.308C155.117 97.896 154.259 98.358 153.263 98.694C152.279 99.018 151.193 99.18 150.005 99.18ZM150.005 95.868C150.653 95.868 151.253 95.79 151.805 95.634C152.357 95.466 152.831 95.238 153.227 94.95C153.635 94.65 153.947 94.302 154.163 93.906C154.379 93.51 154.487 93.084 154.487 92.628C154.487 92.172 154.379 91.746 154.163 91.35C153.947 90.954 153.635 90.612 153.227 90.324C152.831 90.024 152.357 89.796 151.805 89.64C151.253 89.472 150.653 89.388 150.005 89.388C149.345 89.388 148.739 89.472 148.187 89.64C147.635 89.796 147.155 90.024 146.747 90.324C146.351 90.612 146.045 90.954 145.829 91.35C145.613 91.746 145.505 92.172 145.505 92.628C145.505 93.084 145.613 93.51 145.829 93.906C146.045 94.302 146.351 94.65 146.747 94.95C147.155 95.238 147.635 95.466 148.187 95.634C148.739 95.79 149.345 95.868 150.005 95.868ZM170.121 99.18C169.005 99.18 167.979 99.048 167.043 98.784C166.107 98.508 165.297 98.1 164.613 97.56C163.929 97.02 163.401 96.342 163.029 95.526C162.657 94.698 162.471 93.732 162.471 92.628C162.471 91.68 162.669 90.81 163.065 90.018C163.473 89.214 164.043 88.518 164.775 87.93C165.507 87.342 166.371 86.886 167.367 86.562C168.375 86.238 169.479 86.076 170.679 86.076C171.651 86.076 172.539 86.178 173.343 86.382C174.147 86.586 174.849 86.844 175.449 87.156C176.061 87.468 176.559 87.792 176.943 88.128L174.819 90.504C174.483 90.264 174.105 90.048 173.685 89.856C173.277 89.652 172.821 89.484 172.317 89.352C171.813 89.22 171.249 89.154 170.625 89.154C170.001 89.154 169.419 89.244 168.879 89.424C168.351 89.592 167.889 89.832 167.493 90.144C167.097 90.444 166.785 90.81 166.557 91.242C166.341 91.662 166.233 92.124 166.233 92.628C166.233 93.3 166.347 93.858 166.575 94.302C166.815 94.746 167.139 95.1 167.547 95.364C167.955 95.628 168.417 95.82 168.933 95.94C169.461 96.048 170.007 96.102 170.571 96.102C171.171 96.102 171.717 96.048 172.209 95.94C172.713 95.832 173.145 95.682 173.505 95.49C173.865 95.298 174.147 95.064 174.351 94.788C174.555 94.512 174.651 94.206 174.639 93.87V93.492L175.125 94.392H170.283V91.836H177.987C177.999 92.016 178.011 92.232 178.023 92.484C178.035 92.736 178.041 92.964 178.041 93.168C178.053 93.372 178.059 93.498 178.059 93.546C178.059 94.482 177.867 95.304 177.483 96.012C177.111 96.708 176.577 97.29 175.881 97.758C175.185 98.226 174.351 98.58 173.379 98.82C172.407 99.06 171.321 99.18 170.121 99.18ZM183.436 99V95.958H186.892V89.442H183.436V86.4H193.894V89.442H190.456V95.958H193.894V99H183.436ZM200.371 99V86.4H212.053V89.334H203.791V96.066H212.323V99H200.371ZM202.243 93.996V91.224H211.333V93.996H202.243ZM223.623 99.18C222.555 99.18 221.577 99.09 220.689 98.91C219.801 98.718 218.997 98.472 218.277 98.172C217.557 97.872 216.903 97.554 216.315 97.218L217.791 94.374C218.871 95.034 219.945 95.508 221.013 95.796C222.093 96.084 223.071 96.228 223.947 96.228C224.247 96.228 224.577 96.21 224.937 96.174C225.309 96.126 225.621 96.03 225.873 95.886C226.137 95.742 226.269 95.514 226.269 95.202C226.269 95.034 226.215 94.902 226.107 94.806C226.011 94.698 225.861 94.608 225.657 94.536C225.453 94.464 225.201 94.404 224.901 94.356C224.613 94.308 224.283 94.272 223.911 94.248C223.551 94.212 223.149 94.176 222.705 94.14C221.853 94.068 221.079 93.936 220.383 93.744C219.699 93.552 219.105 93.3 218.601 92.988C218.109 92.664 217.725 92.274 217.449 91.818C217.185 91.362 217.053 90.84 217.053 90.252C217.053 89.58 217.221 88.986 217.557 88.47C217.893 87.942 218.361 87.504 218.961 87.156C219.561 86.796 220.251 86.526 221.031 86.346C221.811 86.166 222.645 86.076 223.533 86.076C224.469 86.076 225.303 86.154 226.035 86.31C226.779 86.466 227.433 86.67 227.997 86.922C228.573 87.174 229.047 87.426 229.419 87.678L227.853 90.126C227.469 89.898 227.019 89.706 226.503 89.55C225.999 89.394 225.477 89.274 224.937 89.19C224.409 89.094 223.893 89.046 223.389 89.046C222.909 89.046 222.471 89.076 222.075 89.136C221.691 89.196 221.385 89.298 221.157 89.442C220.941 89.574 220.833 89.76 220.833 90C220.833 90.216 220.941 90.39 221.157 90.522C221.385 90.642 221.667 90.738 222.003 90.81C222.351 90.87 222.711 90.918 223.083 90.954C223.455 90.978 223.791 91.008 224.091 91.044C224.811 91.104 225.519 91.188 226.215 91.296C226.923 91.404 227.565 91.584 228.141 91.836C228.717 92.088 229.173 92.454 229.509 92.934C229.857 93.414 230.031 94.062 230.031 94.878C230.031 95.79 229.749 96.57 229.185 97.218C228.621 97.854 227.853 98.34 226.881 98.676C225.921 99.012 224.835 99.18 223.623 99.18Z" fill="black"/>
</svg>
