<svg width="454" height="316" viewBox="0 0 454 316" fill="none" xmlns="http://www.w3.org/2000/svg">
<mask id="mask0_898_18196" style="mask-type:luminance" maskUnits="userSpaceOnUse" x="17" y="11" width="437" height="305">
<path d="M17.7344 11.3333H453.781V315.995H17.7344V11.3333Z" fill="white"/>
</mask>
<g mask="url(#mask0_898_18196)">
<path d="M434.901 281.521L40.4792 315.917C28.2656 316.979 17.7656 307.354 17.7656 295.099V32.2446C17.7656 19.9842 28.2656 10.3592 40.4792 11.4269L434.901 45.8228C445.698 46.7655 453.979 55.8019 453.979 66.6405V260.703C453.979 271.536 445.698 280.578 434.901 281.521Z" fill="#FFDE59"/>
</g>
<mask id="mask1_898_18196" style="mask-type:luminance" maskUnits="userSpaceOnUse" x="0" y="0" width="441" height="309">
<path d="M0.78125 0.067627H440.667V308.667H0.78125V0.067627Z" fill="white"/>
</mask>
<g mask="url(#mask1_898_18196)">
<path d="M23.2507 3.63527C18.4329 3.63527 13.7402 5.44256 10.1621 8.72382C6.17253 12.3801 3.88607 17.578 3.88607 22.9894V285.844C3.88607 291.255 6.17253 296.458 10.1621 300.114C14.1517 303.765 19.5215 305.588 24.9225 305.125L419.344 270.729C429.423 269.854 437.016 261.562 437.016 251.448V57.3905C437.016 47.2759 429.423 38.9842 419.344 38.104L24.9225 3.70819C24.3652 3.66132 23.8079 3.63527 23.2507 3.63527ZM23.2507 308.281C17.6673 308.281 12.2246 306.187 8.07878 302.385C3.45378 298.146 0.802734 292.114 0.802734 285.844V22.9894C0.802734 16.7186 3.45378 10.6874 8.07878 6.44777C12.7038 2.20819 18.9329 0.0727749 25.1882 0.635274L419.61 35.0363C431.292 36.0519 440.1 45.6613 440.1 57.3905V251.448C440.1 263.172 431.292 272.781 419.61 273.802L25.1882 308.198C24.5423 308.255 23.8965 308.281 23.2507 308.281Z" fill="#231815"/>
</g>
<path d="M115.845 174.125C105.954 174.125 98.4753 171.744 93.4076 166.979C88.3503 162.218 85.8242 155.437 85.8242 146.646V140.812C85.8242 132.01 88.3659 125.198 93.4492 120.375C98.5326 115.557 105.996 113.146 115.845 113.146C125.704 113.146 133.168 115.557 138.241 120.375C143.324 125.198 145.866 132.01 145.866 140.812V146.646C145.866 155.437 143.329 162.218 138.262 166.979C133.204 171.744 125.73 174.125 115.845 174.125ZM115.845 161.875C120.663 161.875 124.293 160.562 126.741 157.937C129.184 155.312 130.408 151.666 130.408 147V140.437C130.408 135.687 129.184 131.994 126.741 129.354C124.293 126.718 120.663 125.396 115.845 125.396C110.996 125.396 107.355 126.718 104.928 129.354C102.496 131.994 101.283 135.687 101.283 140.437V147C101.283 151.666 102.496 155.312 104.928 157.937C107.355 160.562 110.996 161.875 115.845 161.875Z" fill="black"/>
<path d="M173.112 111.417C175.831 111.417 178.404 111.62 180.82 112.021C183.247 112.411 185.393 112.917 187.258 113.542L188.633 124.271C187.091 123.844 185.471 123.495 183.779 123.229C182.096 122.953 180.279 122.812 178.32 122.812C175.93 122.812 174.117 123.036 172.883 123.479C171.643 123.911 170.805 124.515 170.362 125.292C169.93 126.057 169.716 126.953 169.716 127.979V128.104C169.716 128.828 169.826 129.479 170.049 130.062C170.284 130.635 170.57 131.156 170.904 131.625L161.508 132.083V130.687C159.81 130.078 158.367 129.114 157.174 127.792C155.992 126.458 155.404 124.682 155.404 122.458V122.271C155.404 118.844 156.82 116.177 159.654 114.271C162.487 112.37 166.971 111.417 173.112 111.417ZM171.674 172.5H157.07V135.167H171.674V172.5ZM187.174 142.354H150.195V131L163.404 131.125L168.779 131H188.487L187.174 142.354Z" fill="black"/>
<path d="M212.575 111.417C215.294 111.417 217.867 111.62 220.283 112.021C222.71 112.411 224.856 112.917 226.721 113.542L228.096 124.271C226.554 123.844 224.934 123.495 223.242 123.229C221.559 122.953 219.742 122.812 217.783 122.812C215.393 122.812 213.58 123.036 212.346 123.479C211.106 123.911 210.268 124.515 209.825 125.292C209.393 126.057 209.179 126.953 209.179 127.979V128.104C209.179 128.828 209.288 129.479 209.512 130.062C209.747 130.635 210.033 131.156 210.367 131.625L200.971 132.083V130.687C199.273 130.078 197.83 129.114 196.637 127.792C195.455 126.458 194.867 124.682 194.867 122.458V122.271C194.867 118.844 196.283 116.177 199.117 114.271C201.95 112.37 206.434 111.417 212.575 111.417ZM211.137 172.5H196.533V135.167H211.137V172.5ZM226.637 142.354H189.658V131L202.867 131.125L208.242 131H227.95L226.637 142.354Z" fill="black"/>
<path d="M258.37 173.896C249.38 173.896 242.708 172.01 238.349 168.229C234 164.453 231.828 158.989 231.828 151.833V149.083C231.828 142 233.901 136.552 238.057 132.729C242.224 128.896 248.193 126.979 255.974 126.979C261.276 126.979 265.703 127.823 269.245 129.5C272.786 131.167 275.443 133.531 277.224 136.583C279 139.64 279.891 143.265 279.891 147.458V148.458C279.891 149.542 279.833 150.646 279.724 151.771C279.625 152.896 279.484 153.917 279.307 154.833H265.974C266.109 153.375 266.208 151.932 266.266 150.5C266.333 149.073 266.37 147.812 266.37 146.729C266.37 144.771 265.995 143.114 265.245 141.75C264.495 140.375 263.349 139.333 261.807 138.625C260.266 137.917 258.318 137.562 255.974 137.562C252.5 137.562 249.917 138.385 248.224 140.021C246.542 141.661 245.703 143.948 245.703 146.875V149.667L245.807 150.979V153.687C245.807 154.844 246.005 155.953 246.411 157.021C246.813 158.094 247.547 159.062 248.62 159.937C249.688 160.812 251.214 161.5 253.203 162C255.203 162.489 257.786 162.729 260.953 162.729C264.172 162.729 267.297 162.437 270.328 161.854C273.354 161.271 276.286 160.437 279.12 159.354L277.807 170.021C275.401 171.26 272.568 172.208 269.307 172.875C266.057 173.552 262.411 173.896 258.37 173.896ZM276.453 154.833H239.016V146.104H276.453V154.833Z" fill="black"/>
<path d="M302.63 148.625L299.089 140.271H302.297C303.115 136.385 304.724 133.307 307.13 131.041C309.547 128.781 312.849 127.646 317.047 127.646C317.974 127.646 318.818 127.708 319.568 127.833C320.328 127.958 321.026 128.114 321.651 128.291L322.568 142.354C321.719 142.135 320.76 141.968 319.693 141.854C318.62 141.729 317.557 141.666 316.505 141.666C313.031 141.666 310.13 142.286 307.797 143.521C305.464 144.76 303.74 146.458 302.63 148.625ZM302.984 172.5H288.297V128.562H302.297L301.672 143.291L302.984 143.479V172.5Z" fill="black"/>
<path d="M348.046 173.896C343.822 173.896 340.031 173.547 336.671 172.854C333.322 172.161 330.442 171.349 328.025 170.416L326.63 158.521C329.39 159.646 332.489 160.64 335.921 161.5C339.364 162.349 343.057 162.771 347.005 162.771C350.171 162.771 352.442 162.5 353.817 161.958C355.192 161.416 355.88 160.489 355.88 159.166V159.083C355.88 158.14 355.546 157.427 354.88 156.937C354.213 156.437 353.072 156.021 351.463 155.687C349.848 155.354 347.63 154.995 344.796 154.604C340.156 153.937 336.494 153.052 333.817 151.937C331.135 150.812 329.223 149.349 328.088 147.541C326.963 145.739 326.4 143.51 326.4 140.854V140.583C326.4 135.974 328.14 132.573 331.63 130.375C335.13 128.166 340.317 127.062 347.192 127.062C351.286 127.062 354.963 127.406 358.213 128.083C361.473 128.765 364.255 129.583 366.546 130.541L367.9 141.479C365.244 140.427 362.281 139.562 359.005 138.896C355.739 138.219 352.343 137.875 348.817 137.875C346.593 137.875 344.88 138.01 343.671 138.271C342.463 138.521 341.619 138.885 341.15 139.354C340.692 139.812 340.463 140.39 340.463 141.083V141.125C340.463 141.906 340.702 142.541 341.192 143.041C341.692 143.541 342.682 143.974 344.171 144.333C345.671 144.698 347.911 145.094 350.9 145.521C355.484 146.146 359.197 146.937 362.046 147.896C364.89 148.844 366.968 150.177 368.275 151.896C369.593 153.604 370.255 155.969 370.255 158.979V159.166C370.255 164.265 368.426 167.995 364.775 170.354C361.135 172.713 355.557 173.896 348.046 173.896Z" fill="black"/>
</svg>
