<svg width="488" height="163" viewBox="0 0 488 163" fill="none" xmlns="http://www.w3.org/2000/svg">

<mask id="mask0_993_9709" style="mask-type:luminance" maskUnits="userSpaceOnUse" x="37" y="0" width="451" height="163">
  <path d="M488 0H37.4049V162.224H488V0Z" fill="white"/>
</mask>

<g mask="url(#mask0_993_9709)">
  <path d="M39.478 9.44272L39.5182 9.59897C39.6548 10.6771 54.1298 117.5 55.7934 127.563C57.2964 136.635 77.4857 137.427 77.6786 137.438H77.7751C81.1346 137.661 414.106 159.661 434.697 161.823C453.375 163.781 455.843 155.484 455.939 155.135L455.963 155.073L486.272 86.6979C488.739 75.2604 476.82 72.8802 476.33 72.7865C472.255 72.0677 68.5082 0.666675 51.3167 0.192717C46.7356 0.0677168 43.4001 0.776049 41.431 2.3073C37.9831 4.97918 39.4619 9.40105 39.478 9.44272Z" fill="#82699D"/>
</g>

<path d="M10.8904 15.2188C16.9264 11.6979 24.7063 10.0677 32.8158 10.6302L422.578 37.4948C440.468 38.7292 455.016 50.2865 455.016 63.2604V124.682C455.016 131.406 451.045 137.578 444.125 141.609C438.869 144.677 432.27 146.307 425.302 146.307C424.282 146.307 423.237 146.271 422.2 146.198L32.438 119.333C14.5474 118.099 9.15527e-05 106.536 9.15527e-05 93.5625V32.1407C9.15527e-05 25.4219 3.97046 19.25 10.8904 15.2188Z" fill="#28334F"/>

<path d="M3.58435 32.1405V93.5624C3.58435 105.391 16.701 115.906 32.8155 117.016L422.577 143.891C429.65 144.375 436.457 142.953 441.722 139.88C447.894 136.292 451.431 130.75 451.431 124.682V63.2603C451.431 51.4426 438.314 40.9166 422.2 39.8072L32.4377 12.9426C31.5215 12.8749 30.6213 12.8489 29.7131 12.8489C23.629 12.8489 17.8824 14.2708 13.2932 16.9426C7.1207 20.5364 3.58435 26.078 3.58435 32.1405Z" fill="#FBF6FD"/>

<!-- ================= TEXT ADDED HERE ================= -->
<text
  x="340"
  y="95"
  text-anchor="middle"
  font-size="30"
  font-weight="600"
  fill="#000"
  font-family="Noto Sans Devanagari, Arial, sans-serif"
>
  Offer (बिक्रेता)
</text>
<!-- =================================================== -->

</svg>
