<svg width="488" height="163" viewBox="0 0 488 163" fill="none" xmlns="http://www.w3.org/2000/svg">
  <mask id="mask0_993_9699" style="mask-type:luminance" maskUnits="userSpaceOnUse" x="0" y="0" width="451" height="163">
    <path d="M0 0H450.595V162.224H0V0Z" fill="white"/>
  </mask>

  <g mask="url(#mask0_993_9699)">
    <path d="M448.522 9.44272L448.482 9.59897C448.345 10.6771 433.87 117.5 432.207 127.563C430.704 136.635 410.514 137.427 410.321 137.438H410.225C406.865 137.661 73.8941 159.661 53.3029 161.823C34.6246 163.781 32.1571 155.484 32.0607 155.135L32.0366 155.073L1.72848 86.6979C-0.738931 75.2604 11.1802 72.8802 11.6704 72.7865C15.7453 72.0677 419.492 0.666675 436.683 0.192717C441.264 0.0677168 444.6 0.776049 446.569 2.3073C450.017 4.97918 448.538 9.40105 448.522 9.44272Z" fill="#4D5991"/>
  </g>

  <path d="M477.11 15.2188C471.074 11.6979 463.294 10.0677 455.184 10.6302L65.4223 37.4948C47.5316 38.7292 32.9844 50.2865 32.9844 63.2604V124.682C32.9844 131.406 36.9547 137.578 43.8747 141.609C49.131 144.677 55.7295 146.307 62.6977 146.307C63.7185 146.307 64.7633 146.271 65.8001 146.198L455.562 119.333C473.453 118.099 488 106.536 488 93.5625V32.1407C488 25.4219 484.03 19.25 477.11 15.2188Z" fill="#28334F"/>

  <path d="M484.416 32.1405V93.5624C484.416 105.391 471.299 115.906 455.185 117.016L65.4227 143.891C58.35 144.375 51.5426 142.953 46.2782 139.88C40.1057 136.292 36.5693 130.75 36.5693 124.682V63.2603C36.5693 51.4426 49.686 40.9166 65.8005 39.8072L455.562 12.9426C456.479 12.8749 457.379 12.8489 458.287 12.8489C464.371 12.8489 470.118 14.2708 474.707 16.9426C480.879 20.5364 484.416 26.078 484.416 32.1405Z" fill="#F4F6FF"/>

  <!-- ================= TEXT ADDED HERE ================= -->
  <text
    x="160"
    y="95"
    text-anchor="middle"
    font-size="34"
    font-weight="600"
    fill="#000"
    font-family="Noto Sans Devanagari, Arial, sans-serif"
  >
    Wish (क्रेता)
  </text>
  <!-- =================================================== -->

</svg>
