<svg width="453" height="316" viewBox="0 0 453 316" fill="none" xmlns="http://www.w3.org/2000/svg">
<path d="M19.0833 281.453L413.505 315.849C425.714 316.911 436.219 307.286 436.219 295.031V32.177C436.219 19.9166 425.714 10.2916 413.505 11.3593L19.0833 45.7551C8.28646 46.6979 0 55.7343 0 66.5729V260.635C0 271.469 8.28646 280.51 19.0833 281.453Z" fill="#FFDE59"/>
<mask id="mask0_898_18195" style="mask-type:luminance" maskUnits="userSpaceOnUse" x="13" y="0" width="440" height="309">
<path d="M13.2812 0H452.984V308.599H13.2812V0Z" fill="white"/>
</mask>
<g mask="url(#mask0_898_18195)">
<path d="M430.735 3.56765C435.553 3.56765 440.245 5.37494 443.818 8.65619C447.808 12.3124 450.1 17.5104 450.1 22.9218V285.776C450.1 291.187 447.808 296.391 443.818 300.047C439.834 303.698 434.459 305.521 429.063 305.057L34.6413 270.661C24.5632 269.786 16.9642 261.495 16.9642 251.38V57.3229C16.9642 47.2083 24.5632 38.9166 34.6413 38.0364L429.063 3.64056C429.62 3.59369 430.178 3.56765 430.735 3.56765ZM430.735 308.213C436.318 308.213 441.756 306.12 445.902 302.318C450.532 298.078 453.183 292.047 453.183 285.776V22.9218C453.183 16.651 450.532 10.6197 445.902 6.38015C441.277 2.14056 435.053 0.00514792 428.792 0.567647L34.3757 34.9687C22.6934 35.9843 13.8809 45.5937 13.8809 57.3229V251.38C13.8809 263.104 22.6934 272.713 34.3757 273.734L428.792 308.13C429.443 308.187 430.089 308.213 430.735 308.213Z" fill="#231815"/>
</g>
<path d="M100.177 183.803H78.9688L66.4062 126.032H81.7396L88.9271 165.678L89.9271 171.282H90.8229L91.9063 165.678L99.4063 127.47H118.177L125.719 165.678L126.76 171.282H127.656L128.698 165.72L135.948 126.032H151.219L138.656 183.803H117.49L111.156 149.907L109.219 139.761H108.406L106.427 149.907L100.177 183.803Z" fill="black"/>
<path d="M173.046 183.803H158.4V139.866H173.046V183.803ZM165.712 135.241C162.973 135.241 160.973 134.647 159.712 133.449C158.447 132.241 157.816 130.595 157.816 128.511V128.241C157.816 126.199 158.447 124.569 159.712 123.345C160.973 122.126 162.973 121.511 165.712 121.511C168.431 121.511 170.431 122.126 171.712 123.345C172.988 124.569 173.629 126.199 173.629 128.241V128.511C173.629 130.626 172.988 132.277 171.712 133.47C170.431 134.652 168.431 135.241 165.712 135.241Z" fill="black"/>
<path d="M202.601 185.199C198.377 185.199 194.585 184.85 191.226 184.157C187.877 183.465 184.997 182.652 182.58 181.72L181.184 169.824C183.945 170.949 187.044 171.944 190.476 172.803C193.919 173.652 197.611 174.074 201.559 174.074C204.726 174.074 206.997 173.803 208.372 173.262C209.747 172.72 210.434 171.793 210.434 170.47V170.387C210.434 169.444 210.101 168.73 209.434 168.241C208.768 167.741 207.627 167.324 206.018 166.991C204.403 166.657 202.184 166.298 199.351 165.907C194.71 165.241 191.049 164.355 188.372 163.241C185.689 162.116 183.778 160.652 182.643 158.845C181.518 157.043 180.955 154.814 180.955 152.157V151.887C180.955 147.277 182.695 143.876 186.184 141.678C189.684 139.47 194.872 138.366 201.747 138.366C205.84 138.366 209.518 138.709 212.768 139.387C216.028 140.069 218.809 140.887 221.101 141.845L222.455 152.782C219.799 151.73 216.835 150.866 213.559 150.199C210.294 149.522 206.898 149.178 203.372 149.178C201.148 149.178 199.434 149.314 198.226 149.574C197.018 149.824 196.174 150.189 195.705 150.657C195.247 151.116 195.018 151.694 195.018 152.387V152.428C195.018 153.209 195.257 153.845 195.747 154.345C196.247 154.845 197.236 155.277 198.726 155.637C200.226 156.001 202.465 156.397 205.455 156.824C210.038 157.449 213.752 158.241 216.601 159.199C219.445 160.147 221.523 161.48 222.83 163.199C224.148 164.907 224.809 167.272 224.809 170.282V170.47C224.809 175.569 222.981 179.298 219.33 181.657C215.689 184.017 210.111 185.199 202.601 185.199Z" fill="black"/>
<path d="M280.452 183.803H265.806V159.928C265.806 158.178 265.556 156.61 265.056 155.22C264.556 153.819 263.686 152.709 262.452 151.886C261.212 151.069 259.473 150.657 257.223 150.657C255.374 150.657 253.77 150.965 252.41 151.574C251.061 152.173 249.952 152.98 249.077 153.991C248.202 155.006 247.504 156.131 246.993 157.366L244.285 150.303H247.41C247.952 148.11 248.858 146.131 250.139 144.366C251.415 142.605 253.171 141.199 255.41 140.157C257.66 139.116 260.441 138.595 263.764 138.595C267.566 138.595 270.691 139.298 273.139 140.699C275.598 142.105 277.431 144.178 278.639 146.928C279.848 149.668 280.452 153.069 280.452 157.136V183.803ZM247.223 183.803H232.535V124.22H247.077V138.907L246.868 153.928L247.223 154.553V183.803Z" fill="black"/>
<path d="M315.026 185.199C306.036 185.199 299.365 183.313 295.005 179.532C290.656 175.756 288.484 170.293 288.484 163.136V160.386C288.484 153.303 290.557 147.855 294.714 144.032C298.88 140.199 304.849 138.282 312.63 138.282C317.932 138.282 322.359 139.126 325.901 140.803C329.443 142.47 332.099 144.834 333.88 147.886C335.656 150.944 336.547 154.569 336.547 158.761V159.761C336.547 160.845 336.49 161.949 336.38 163.074C336.281 164.199 336.141 165.22 335.964 166.136H322.63C322.766 164.678 322.865 163.235 322.922 161.803C322.99 160.376 323.026 159.116 323.026 158.032C323.026 156.074 322.651 154.418 321.901 153.053C321.151 151.678 320.005 150.636 318.464 149.928C316.922 149.22 314.974 148.866 312.63 148.866C309.156 148.866 306.573 149.688 304.88 151.324C303.198 152.965 302.359 155.251 302.359 158.178V160.97L302.464 162.282V164.991C302.464 166.147 302.661 167.256 303.068 168.324C303.469 169.397 304.203 170.366 305.276 171.241C306.344 172.116 307.87 172.803 309.859 173.303C311.859 173.793 314.443 174.032 317.609 174.032C320.828 174.032 323.953 173.741 326.984 173.157C330.01 172.574 332.943 171.741 335.776 170.657L334.464 181.324C332.057 182.563 329.224 183.511 325.964 184.178C322.714 184.855 319.068 185.199 315.026 185.199ZM333.109 166.136H295.672V157.407H333.109V166.136Z" fill="black"/>
<path d="M363.974 185.199C359.75 185.199 355.958 184.85 352.599 184.157C349.25 183.465 346.37 182.652 343.953 181.72L342.557 169.824C345.318 170.949 348.417 171.944 351.849 172.803C355.292 173.652 358.984 174.074 362.932 174.074C366.099 174.074 368.37 173.803 369.745 173.262C371.12 172.72 371.807 171.793 371.807 170.47V170.387C371.807 169.444 371.474 168.73 370.807 168.241C370.141 167.741 369 167.324 367.391 166.991C365.776 166.657 363.557 166.298 360.724 165.907C356.083 165.241 352.422 164.355 349.745 163.241C347.062 162.116 345.151 160.652 344.016 158.845C342.891 157.043 342.328 154.814 342.328 152.157V151.887C342.328 147.277 344.068 143.876 347.557 141.678C351.057 139.47 356.245 138.366 363.12 138.366C367.214 138.366 370.891 138.709 374.141 139.387C377.401 140.069 380.182 140.887 382.474 141.845L383.828 152.782C381.172 151.73 378.208 150.866 374.932 150.199C371.667 149.522 368.271 149.178 364.745 149.178C362.521 149.178 360.807 149.314 359.599 149.574C358.391 149.824 357.547 150.189 357.078 150.657C356.62 151.116 356.391 151.694 356.391 152.387V152.428C356.391 153.209 356.63 153.845 357.12 154.345C357.62 154.845 358.609 155.277 360.099 155.637C361.599 156.001 363.839 156.397 366.828 156.824C371.411 157.449 375.125 158.241 377.974 159.199C380.818 160.147 382.896 161.48 384.203 163.199C385.521 164.907 386.182 167.272 386.182 170.282V170.47C386.182 175.569 384.354 179.298 380.703 181.657C377.063 184.017 371.484 185.199 363.974 185.199Z" fill="black"/>
</svg>
